#!OML:ASF F:\VICON\USERDATA\INSTALL\rory3\rory3.ASF
:FULLY-SPECIFIED
:DEGREES
677
root 2.17884 18.2836 -2.14523 13.3752 36.7577 3.71524
lowerback -7.28644 -1.65908 -0.916117
upperback -2.13952 -2.11998 -0.160084
thorax 1.90135 -1.05146 0.162919
lowerneck -19.5864 1.00674 4.32859
upperneck 20.9566 0.468808 -1.46791
head 9.91741 0.408183 -1.16482
rclavicle 7.10531e-014 7.55382e-015
rhumerus -36.0372 5.3076 -87.4011
rradius 26.3193
rwrist 6.10225
rhand -19.9149 8.85729
rfingers 7.12502
rthumb 6.422 -21.0253
lclavicle 7.10531e-014 7.55382e-015
lhumerus -41.0432 -13.2166 87.4468
lradius 28.5268
lwrist 7.46562
lhand -6.61195 27.3914
lfingers 7.12502
lthumb 19.244 56.4592
rfemur -29.4637 -4.06742 19.9706
rtibia 27.5327
rfoot -9.89083 3.03146
rtoes 7.29362
lfemur -11.1614 10.1485 -18.7993
ltibia 52.5571
lfoot 7.78826 -12.4738
ltoes -26.2708
678
root 2.2367 18.2885 -2.02702 12.9969 36.8716 3.33399
lowerback -7.15162 -1.5536 -0.604352
upperback -2.11427 -2.00624 -0.0573071
thorax 1.84443 -0.994511 0.107572
lowerneck -19.5648 0.918006 4.22777
upperneck 21.0241 0.373245 -1.44734
head 9.93382 0.359557 -1.15474
rclavicle -4.5559e-014 -8.74653e-015
rhumerus -35.7217 5.62412 -87.4656
rradius 26.4623
rwrist 5.60901
rhand -19.9555 8.89096
rfingers 7.12502
rthumb 6.38276 -20.9929
lclavicle -4.5559e-014 -8.74653e-015
lhumerus -41.2288 -13.2285 87.4411
lradius 28.2066
lwrist 6.15782
lhand -5.58926 27.0849
lfingers 7.12502
lthumb 20.2272 56.0518
rfemur -28.8473 -4.19028 20.397
rtibia 27.6155
rfoot -10.1847 3.50483
rtoes 7.01873
lfemur -12.3448 10.3402 -18.2738
ltibia 54.713
lfoot 7.85414 -12.0376
ltoes -25.6267
679
root 2.29162 18.2815 -1.91375 12.7151 36.9297 3.13881
lowerback -7.04077 -1.47121 -0.431192
upperback -2.07301 -1.91105 -0.0145028
thorax 1.82054 -0.947096 0.0651947
lowerneck -19.4868 0.839777 4.10377
upperneck 21.0623 0.283847 -1.35349
head 9.92979 0.320468 -1.11386
rclavicle 8.29429e-014 1.39149e-015
rhumerus -35.4893 6.42141 -87.8768
rradius 26.8074
rwrist 4.34947
rhand -20.5639 8.47875
rfingers 7.12502
rthumb 5.79542 -21.422
lclavicle 8.29429e-014 1.39149e-015
lhumerus -41.5389 -13.3066 87.508
lradius 28.1451
lwrist 5.28322
lhand -5.01635 26.9493
lfingers 7.12502
lthumb 20.7777 55.8569
rfemur -28.2841 -4.1509 20.6217
rtibia 27.784
rfoot -10.8093 3.60843
rtoes 7.72287
lfemur -13.5239 10.6989 -17.9921
ltibia 56.6367
lfoot 7.49856 -11.5962
ltoes -26.7005
680
root 2.34781 18.2756 -1.7995 12.5269 36.9201 3.11323
lowerback -6.94822 -1.37655 -0.410858
upperback -2.03461 -1.78705 -0.0292836
thorax 1.80695 -0.885465 0.0509535
lowerneck -19.4 0.775704 4.09027
upperneck 21.1249 0.201042 -1.34129
head 9.93347 0.284043 -1.11923
rclavicle -6.79347e-014 2.18663e-015
rhumerus -35.2358 7.10595 -88.2113
rradius 27.1041
rwrist 3.61066
rhand -20.9293 7.83809
rfingers 7.12502
rthumb 5.44258 -22.072
lclavicle -6.79347e-014 2.18663e-015
lhumerus -41.8215 -13.3352 87.5219
lradius 28.1208
lwrist 4.58544
lhand -4.66833 26.8379
lfingers 7.12502
lthumb 21.1121 55.7085
rfemur -27.7047 -4.07874 20.6865
rtibia 27.93
rfoot -11.4907 3.60235
rtoes 7.55156
lfemur -14.5291 11.0738 -17.9425
ltibia 58.3126
lfoot 6.27573 -11.6525
ltoes -30.9902
681
root 2.40797 18.2745 -1.68384 12.424 36.8575 3.14571
lowerback -6.9506 -1.26888 -0.439901
upperback -1.99356 -1.6414 -0.0518451
thorax 1.85001 -0.813025 0.0556248
lowerneck -19.3553 0.731982 4.09321
upperneck 21.2128 0.149816 -1.37038
head 9.95491 0.258808 -1.13763
rclavicle 1.15544e-014 2.38542e-015
rhumerus -34.8886 7.563 -88.3106
rradius 27.2
rwrist 3.56964
rhand -21.0467 7.49395
rfingers 7.12502
rthumb 5.32925 -22.419
lclavicle 1.15544e-014 2.38542e-015
lhumerus -42.0855 -13.4007 87.5905
lradius 28.1292
lwrist 4.20723
lhand -4.67926 26.6427
lfingers 7.12502
lthumb 21.1016 55.5144
rfemur -27.0942 -3.92415 20.6483
rtibia 27.966
rfoot -11.9669 3.70601
rtoes 7.61987
lfemur -15.3747 11.3152 -17.9337
ltibia 59.8577
lfoot 4.36816 -11.6645
ltoes -33.0513
682
root 2.46878 18.2814 -1.56838 12.3578 36.8511 3.23742
lowerback -6.94945 -1.19094 -0.501556
upperback -1.94253 -1.53307 -0.0755691
thorax 1.90233 -0.759357 0.0742693
lowerneck -19.2819 0.684437 4.02074
upperneck 21.2217 0.110972 -1.37449
head 9.943 0.234985 -1.13243
rclavicle -5.75482e-014 -1.35174e-014
rhumerus -34.4781 8.1255 -88.3862
rradius 27.2548
rwrist 3.69829
rhand -20.8909 7.34303
rfingers 7.12502
rthumb 5.47966 -22.5661
lclavicle -5.75482e-014 -1.35174e-014
lhumerus -42.3314 -13.5369 87.7052
lradius 28.175
lwrist 4.08508
lhand -4.96829 26.2882
lfingers 7.12502
lthumb 20.8239 55.1907
rfemur -26.431 -3.87691 20.5678
rtibia 27.8884
rfoot -12.331 3.91724
rtoes 8.54595
lfemur -16.3696 11.3386 -17.957
ltibia 61.2828
lfoot 3.24472 -10.9898
ltoes -30.8685
683
root 2.52564 18.2927 -1.45464 12.2084 36.924 3.14555
lowerback -6.93409 -1.09385 -0.389946
upperback -1.91699 -1.41148 -0.089956
thorax 1.91636 -0.698572 0.0072152
lowerneck -19.1615 0.613482 3.89357
upperneck 21.2119 0.0431744 -1.31753
head 9.91488 0.200571 -1.10044
rclavicle -1.26999e-013 -2.98177e-015
rhumerus -34.03 8.16297 -88.3698
rradius 27.2949
rwrist 4.22852
rhand -20.6032 7.52658
rfingers 7.12502
rthumb 5.75744 -22.3752
lclavicle -1.26999e-013 -2.98177e-015
lhumerus -42.5439 -13.5542 87.703
lradius 28.2468
lwrist 3.81153
lhand -5.16037 26.0508
lfingers 7.12502
lthumb 20.6393 54.9735
rfemur -25.7698 -4.02439 20.74
rtibia 27.7154
rfoot -12.509 4.19829
rtoes 8.31896
lfemur -17.6513 11.3342 -17.8305
ltibia 62.6094
lfoot 2.74117 -10.2001
ltoes -27.4196
684
root 2.57987 18.303 -1.34278 12.0386 36.9046 3.05266
lowerback -6.87868 -0.972165 -0.293383
upperback -1.86315 -1.25569 -0.140983
thorax 1.9372 -0.620895 -0.085802
lowerneck -19.161 0.591504 3.94886
upperneck 21.2705 0.00948811 -1.36909
head 9.93465 0.18444 -1.13282
rclavicle -3.75827e-014 3.18055e-015
rhumerus -33.4383 8.10064 -88.4434
rradius 27.2784
rwrist 4.61935
rhand -20.3051 8.2704
rfingers 7.12502
rthumb 6.04522 -21.6233
lclavicle -3.75827e-014 3.18055e-015
lhumerus -42.7148 -13.6828 87.6938
lradius 28.4142
lwrist 3.8465
lhand -5.37762 26.155
lfingers 7.12502
lthumb 20.4306 55.1002
rfemur -25.0885 -4.08283 20.8786
rtibia 27.5213
rfoot -12.6702 4.45299
rtoes 7.97899
lfemur -18.835 11.4708 -17.774
ltibia 63.7759
lfoot 2.19103 -9.62553
ltoes -25.9097
685
root 2.63493 18.3096 -1.22994 11.9831 36.8451 3.14511
lowerback -6.86605 -0.855811 -0.384637
upperback -1.78938 -1.09244 -0.241291
thorax 2.00566 -0.53998 -0.124543
lowerneck -19.2396 0.56647 4.15662
upperneck 21.3849 -0.058134 -1.5031
head 9.98794 0.155909 -1.22501
rclavicle 3.19546e-014 -3.18055e-015
rhumerus -32.783 7.68203 -88.3296
rradius 27.2141
rwrist 5.38655
rhand -19.4468 9.29871
rfingers 7.12502
rthumb 6.87385 -20.5697
lclavicle 3.19546e-014 -3.18055e-015
lhumerus -42.9458 -14.1374 87.8354
lradius 28.7581
lwrist 4.60006
lhand -5.95987 26.2178
lfingers 7.12502
lthumb 19.8709 55.222
rfemur -24.4203 -3.95285 20.8017
rtibia 27.3988
rfoot -13.2042 4.45837
rtoes 8.57362
lfemur -19.8691 11.6398 -17.9389
ltibia 64.7534
lfoot 1.38253 -9.15885
ltoes -26.5984
686
root 2.69451 18.3136 -1.11862 12.0142 36.8049 3.30571
lowerback -6.88492 -0.821659 -0.552073
upperback -1.79534 -1.03471 -0.254922
thorax 2.01265 -0.511628 -0.0399621
lowerneck -19.1568 0.578755 4.2005
upperneck 21.5076 -0.0125614 -1.64636
head 10.0174 0.165696 -1.27718
rclavicle 4.07757e-014 -3.77691e-015
rhumerus -32.2634 7.71602 -88.2501
rradius 27.1402
rwrist 5.9434
rhand -19.4873 9.38076
rfingers 7.12502
rthumb 6.83473 -20.4889
lclavicle 4.07757e-014 -3.77691e-015
lhumerus -43.4782 -14.4892 88.2378
lradius 29.2954
lwrist 5.72786
lhand -6.70027 26.2161
lfingers 7.12502
lthumb 19.1591 55.2925
rfemur -23.8627 -3.87154 20.6729
rtibia 27.3982
rfoot -13.7973 4.52076
rtoes 9.30568
lfemur -20.9154 11.799 -18.2398
ltibia 65.5616
lfoot 0.0996399 -8.73531
ltoes -28.6938
687
root 2.75571 18.3141 -1.0077 12.0621 36.791 3.57347
lowerback -6.91105 -0.836246 -0.813286
upperback -1.77044 -1.03594 -0.238356
thorax 2.05774 -0.513266 0.122885
lowerneck -19.0138 0.594927 4.07456
upperneck 21.579 0.0817733 -1.74471
head 10.0188 0.188665 -1.27789
rclavicle -3.63403e-014 1.59028e-015
rhumerus -31.8609 8.3784 -88.4216
rradius 27.2859
rwrist 5.90065
rhand -20.1987 8.51364
rfingers 7.12502
rthumb 6.14798 -21.3771
lclavicle -3.63403e-014 1.59028e-015
lhumerus -43.8655 -14.1335 88.3509
lradius 29.6829
lwrist 6.25736
lhand -7.12078 26.0142
lfingers 7.12502
lthumb 18.7547 55.1301
rfemur -23.2832 -3.87375 20.4526
rtibia 27.4775
rfoot -14.1306 4.78265
rtoes 9.46124
lfemur -21.9129 11.8887 -18.6595
ltibia 66.1945
lfoot -1.05281 -8.11892
ltoes -29.346
688
root 2.81439 18.3097 -0.898687 11.9726 36.8218 3.6311
lowerback -6.91779 -0.784395 -0.785809
upperback -1.73014 -0.967552 -0.287188
thorax 2.10111 -0.479321 0.0626486
lowerneck -18.9836 0.542106 3.94712
upperneck 21.711 0.0428365 -1.71549
head 10.0589 0.165772 -1.25276
rclavicle 4.31611e-014 -7.35503e-015
rhumerus -31.5257 8.84032 -88.6954
rradius 27.5703
rwrist 5.8923
rhand -20.3212 8.23885
rfingers 7.12502
rthumb 6.0297 -21.6554
lclavicle 4.31611e-014 -7.35503e-015
lhumerus -44.0691 -13.7523 88.1537
lradius 30.0353
lwrist 6.62144
lhand -7.32604 26.1213
lfingers 7.12502
lthumb 18.5572 55.2561
rfemur -22.7328 -3.8925 20.4352
rtibia 27.595
rfoot -14.4479 5.03179
rtoes 9.05699
lfemur -22.9009 11.8465 -18.8349
ltibia 66.6705
lfoot -1.92123 -7.63703
ltoes -27.2245
689
root 2.86926 18.2995 -0.791544 11.8833 36.884 3.66888
lowerback -6.89262 -0.720182 -0.768569
upperback -1.69927 -0.882406 -0.333673
thorax 2.11729 -0.436942 0.0125747
lowerneck -18.9639 0.500647 3.89822
upperneck 21.8587 0.0112445 -1.7478
head 10.1068 0.145607 -1.26157
rclavicle 3.00165e-014 7.35503e-015
rhumerus -31.1392 9.08403 -88.8969
rradius 27.7939
rwrist 5.606
rhand -20.4241 8.34441
rfingers 7.12502
rthumb 5.93038 -21.5526
lclavicle 3.00165e-014 7.35503e-015
lhumerus -44.2227 -13.5486 87.9888
lradius 30.4468
lwrist 7.29096
lhand -7.22842 26.3281
lfingers 7.12502
lthumb 18.6511 55.4539
rfemur -22.2416 -3.94077 20.4659
rtibia 27.7499
rfoot -14.9005 5.09074
rtoes 8.30401
lfemur -23.8726 11.7212 -18.9679
ltibia 66.9849
lfoot -2.68601 -7.29396
ltoes -25.1074
